<mxfile host="app.diagrams.net" agent="Mozilla/5.0 (Windows NT 10.0; Win64; x64) AppleWebKit/537.36 (KHTML, like Gecko) Chrome/139.0.0.0 Safari/537.36" version="28.1.2">
  <diagram name="第 1 页" id="llzAJf6m_RvFypabQ47X">
    <mxGraphModel dx="1426" dy="751" grid="1" gridSize="10" guides="1" tooltips="1" connect="1" arrows="1" fold="1" page="1" pageScale="1" pageWidth="827" pageHeight="1169" math="0" shadow="0">
      <root>
        <mxCell id="0" />
        <mxCell id="1" parent="0" />
        <mxCell id="5mjd6HaX1OIvzdEkymCV-1" value="" style="whiteSpace=wrap;html=1;aspect=fixed;" vertex="1" parent="1">
          <mxGeometry x="45" y="82" width="80" height="80" as="geometry" />
        </mxCell>
        <mxCell id="5mjd6HaX1OIvzdEkymCV-2" value="" style="whiteSpace=wrap;html=1;aspect=fixed;" vertex="1" parent="1">
          <mxGeometry x="175" y="82" width="80" height="80" as="geometry" />
        </mxCell>
        <mxCell id="5mjd6HaX1OIvzdEkymCV-3" value="" style="whiteSpace=wrap;html=1;aspect=fixed;" vertex="1" parent="1">
          <mxGeometry x="289" y="82" width="80" height="80" as="geometry" />
        </mxCell>
        <mxCell id="5mjd6HaX1OIvzdEkymCV-4" value="" style="whiteSpace=wrap;html=1;aspect=fixed;" vertex="1" parent="1">
          <mxGeometry x="425" y="82" width="80" height="80" as="geometry" />
        </mxCell>
        <mxCell id="5mjd6HaX1OIvzdEkymCV-5" value="" style="whiteSpace=wrap;html=1;aspect=fixed;" vertex="1" parent="1">
          <mxGeometry x="535" y="82" width="80" height="80" as="geometry" />
        </mxCell>
        <mxCell id="5mjd6HaX1OIvzdEkymCV-6" value="" style="whiteSpace=wrap;html=1;aspect=fixed;" vertex="1" parent="1">
          <mxGeometry x="195" y="242" width="80" height="80" as="geometry" />
        </mxCell>
        <mxCell id="5mjd6HaX1OIvzdEkymCV-8" value="存程式文件电脑" style="text;html=1;align=center;verticalAlign=middle;resizable=0;points=[];autosize=1;strokeColor=none;fillColor=none;" vertex="1" parent="1">
          <mxGeometry x="520" y="490" width="110" height="30" as="geometry" />
        </mxCell>
        <mxCell id="5mjd6HaX1OIvzdEkymCV-9" value="采集系统电脑" style="text;html=1;align=center;verticalAlign=middle;resizable=0;points=[];autosize=1;strokeColor=none;fillColor=none;" vertex="1" parent="1">
          <mxGeometry x="185" y="330" width="100" height="30" as="geometry" />
        </mxCell>
        <mxCell id="5mjd6HaX1OIvzdEkymCV-10" value="" style="endArrow=classic;startArrow=classic;html=1;rounded=0;entryX=0.5;entryY=1;entryDx=0;entryDy=0;exitX=0.5;exitY=0;exitDx=0;exitDy=0;" edge="1" parent="1" source="5mjd6HaX1OIvzdEkymCV-6" target="5mjd6HaX1OIvzdEkymCV-1">
          <mxGeometry width="50" height="50" relative="1" as="geometry">
            <mxPoint x="345" y="412" as="sourcePoint" />
            <mxPoint x="395" y="362" as="targetPoint" />
          </mxGeometry>
        </mxCell>
        <mxCell id="5mjd6HaX1OIvzdEkymCV-11" value="" style="endArrow=classic;startArrow=classic;html=1;rounded=0;entryX=0.5;entryY=1;entryDx=0;entryDy=0;" edge="1" parent="1" source="5mjd6HaX1OIvzdEkymCV-6" target="5mjd6HaX1OIvzdEkymCV-2">
          <mxGeometry width="50" height="50" relative="1" as="geometry">
            <mxPoint x="325" y="282" as="sourcePoint" />
            <mxPoint x="175" y="202" as="targetPoint" />
          </mxGeometry>
        </mxCell>
        <mxCell id="5mjd6HaX1OIvzdEkymCV-12" value="" style="endArrow=classic;startArrow=classic;html=1;rounded=0;entryX=0.5;entryY=1;entryDx=0;entryDy=0;exitX=0.413;exitY=0.025;exitDx=0;exitDy=0;exitPerimeter=0;" edge="1" parent="1" source="5mjd6HaX1OIvzdEkymCV-6" target="5mjd6HaX1OIvzdEkymCV-3">
          <mxGeometry width="50" height="50" relative="1" as="geometry">
            <mxPoint x="435" y="292" as="sourcePoint" />
            <mxPoint x="285" y="212" as="targetPoint" />
          </mxGeometry>
        </mxCell>
        <mxCell id="5mjd6HaX1OIvzdEkymCV-13" value="" style="endArrow=classic;startArrow=classic;html=1;rounded=0;entryX=0.5;entryY=1;entryDx=0;entryDy=0;exitX=0.5;exitY=0;exitDx=0;exitDy=0;" edge="1" parent="1" source="5mjd6HaX1OIvzdEkymCV-6" target="5mjd6HaX1OIvzdEkymCV-4">
          <mxGeometry width="50" height="50" relative="1" as="geometry">
            <mxPoint x="465" y="272" as="sourcePoint" />
            <mxPoint x="315" y="192" as="targetPoint" />
          </mxGeometry>
        </mxCell>
        <mxCell id="5mjd6HaX1OIvzdEkymCV-14" value="" style="endArrow=classic;startArrow=classic;html=1;rounded=0;entryX=0.5;entryY=1;entryDx=0;entryDy=0;exitX=0.5;exitY=0;exitDx=0;exitDy=0;" edge="1" parent="1" source="5mjd6HaX1OIvzdEkymCV-6" target="5mjd6HaX1OIvzdEkymCV-5">
          <mxGeometry width="50" height="50" relative="1" as="geometry">
            <mxPoint x="745" y="282" as="sourcePoint" />
            <mxPoint x="595" y="202" as="targetPoint" />
          </mxGeometry>
        </mxCell>
        <mxCell id="5mjd6HaX1OIvzdEkymCV-15" value="机台1" style="text;html=1;align=center;verticalAlign=middle;resizable=0;points=[];autosize=1;strokeColor=none;fillColor=none;" vertex="1" parent="1">
          <mxGeometry x="60" y="50" width="50" height="30" as="geometry" />
        </mxCell>
        <mxCell id="5mjd6HaX1OIvzdEkymCV-16" value="机台2" style="text;html=1;align=center;verticalAlign=middle;resizable=0;points=[];autosize=1;strokeColor=none;fillColor=none;" vertex="1" parent="1">
          <mxGeometry x="190" y="50" width="50" height="30" as="geometry" />
        </mxCell>
        <mxCell id="5mjd6HaX1OIvzdEkymCV-17" value="机台3" style="text;html=1;align=center;verticalAlign=middle;resizable=0;points=[];autosize=1;strokeColor=none;fillColor=none;" vertex="1" parent="1">
          <mxGeometry x="304" y="50" width="50" height="30" as="geometry" />
        </mxCell>
        <mxCell id="5mjd6HaX1OIvzdEkymCV-18" value="机台4" style="text;html=1;align=center;verticalAlign=middle;resizable=0;points=[];autosize=1;strokeColor=none;fillColor=none;" vertex="1" parent="1">
          <mxGeometry x="440" y="50" width="50" height="30" as="geometry" />
        </mxCell>
        <mxCell id="5mjd6HaX1OIvzdEkymCV-19" value="机台5" style="text;html=1;align=center;verticalAlign=middle;resizable=0;points=[];autosize=1;strokeColor=none;fillColor=none;" vertex="1" parent="1">
          <mxGeometry x="550" y="50" width="50" height="30" as="geometry" />
        </mxCell>
        <mxCell id="5mjd6HaX1OIvzdEkymCV-20" value="采集&lt;div&gt;&lt;span style=&quot;background-color: transparent; color: light-dark(rgb(0, 0, 0), rgb(255, 255, 255));&quot;&gt;1.&lt;/span&gt;&lt;span style=&quot;background-color: transparent;&quot;&gt;&lt;font style=&quot;color: light-dark(rgb(85, 192, 255), rgb(255, 255, 255));&quot;&gt; 程式号&lt;/font&gt;&lt;/span&gt;&lt;div&gt;2. 机台转速&lt;/div&gt;&lt;/div&gt;" style="text;html=1;align=center;verticalAlign=middle;resizable=0;points=[];autosize=1;strokeColor=none;fillColor=none;" vertex="1" parent="1">
          <mxGeometry x="55" y="192" width="80" height="60" as="geometry" />
        </mxCell>
        <mxCell id="5mjd6HaX1OIvzdEkymCV-23" value="" style="rounded=0;whiteSpace=wrap;html=1;direction=south;" vertex="1" parent="1">
          <mxGeometry x="519" y="212" width="112" height="270" as="geometry" />
        </mxCell>
        <mxCell id="5mjd6HaX1OIvzdEkymCV-24" value="原来存放程式文件夹" style="whiteSpace=wrap;html=1;aspect=fixed;" vertex="1" parent="1">
          <mxGeometry x="535" y="231" width="80" height="80" as="geometry" />
        </mxCell>
        <mxCell id="5mjd6HaX1OIvzdEkymCV-25" value="共享文件夹" style="whiteSpace=wrap;html=1;aspect=fixed;" vertex="1" parent="1">
          <mxGeometry x="535" y="352" width="80" height="80" as="geometry" />
        </mxCell>
        <mxCell id="5mjd6HaX1OIvzdEkymCV-26" value="" style="endArrow=classic;html=1;rounded=0;exitX=0.5;exitY=0;exitDx=0;exitDy=0;" edge="1" parent="1" source="5mjd6HaX1OIvzdEkymCV-24">
          <mxGeometry width="50" height="50" relative="1" as="geometry">
            <mxPoint x="345" y="412" as="sourcePoint" />
            <mxPoint x="575" y="162" as="targetPoint" />
          </mxGeometry>
        </mxCell>
        <mxCell id="5mjd6HaX1OIvzdEkymCV-27" value="" style="endArrow=classic;html=1;rounded=0;entryX=0.5;entryY=1;entryDx=0;entryDy=0;exitX=0.5;exitY=0;exitDx=0;exitDy=0;" edge="1" parent="1" source="5mjd6HaX1OIvzdEkymCV-24" target="5mjd6HaX1OIvzdEkymCV-4">
          <mxGeometry width="50" height="50" relative="1" as="geometry">
            <mxPoint x="345" y="412" as="sourcePoint" />
            <mxPoint x="395" y="362" as="targetPoint" />
          </mxGeometry>
        </mxCell>
        <mxCell id="5mjd6HaX1OIvzdEkymCV-28" value="" style="endArrow=classic;html=1;rounded=0;entryX=0.5;entryY=1;entryDx=0;entryDy=0;exitX=0.5;exitY=0;exitDx=0;exitDy=0;" edge="1" parent="1" source="5mjd6HaX1OIvzdEkymCV-24" target="5mjd6HaX1OIvzdEkymCV-3">
          <mxGeometry width="50" height="50" relative="1" as="geometry">
            <mxPoint x="345" y="412" as="sourcePoint" />
            <mxPoint x="395" y="362" as="targetPoint" />
          </mxGeometry>
        </mxCell>
        <mxCell id="5mjd6HaX1OIvzdEkymCV-29" value="" style="endArrow=classic;html=1;rounded=0;entryX=0.5;entryY=1;entryDx=0;entryDy=0;" edge="1" parent="1" target="5mjd6HaX1OIvzdEkymCV-2">
          <mxGeometry width="50" height="50" relative="1" as="geometry">
            <mxPoint x="575" y="232" as="sourcePoint" />
            <mxPoint x="395" y="362" as="targetPoint" />
          </mxGeometry>
        </mxCell>
        <mxCell id="5mjd6HaX1OIvzdEkymCV-30" value="" style="endArrow=classic;html=1;rounded=0;entryX=0.5;entryY=1;entryDx=0;entryDy=0;exitX=0.5;exitY=0;exitDx=0;exitDy=0;" edge="1" parent="1" source="5mjd6HaX1OIvzdEkymCV-24" target="5mjd6HaX1OIvzdEkymCV-1">
          <mxGeometry width="50" height="50" relative="1" as="geometry">
            <mxPoint x="345" y="412" as="sourcePoint" />
            <mxPoint x="395" y="362" as="targetPoint" />
          </mxGeometry>
        </mxCell>
        <mxCell id="5mjd6HaX1OIvzdEkymCV-31" value="&amp;nbsp; &amp;nbsp;U盘拷贝程式文件到机台" style="text;html=1;align=center;verticalAlign=middle;resizable=0;points=[];autosize=1;strokeColor=none;fillColor=none;" vertex="1" parent="1">
          <mxGeometry x="560" y="182" width="160" height="30" as="geometry" />
        </mxCell>
        <mxCell id="5mjd6HaX1OIvzdEkymCV-32" value="" style="endArrow=classic;html=1;rounded=0;entryX=0.5;entryY=0;entryDx=0;entryDy=0;exitX=0.5;exitY=1;exitDx=0;exitDy=0;" edge="1" parent="1" source="5mjd6HaX1OIvzdEkymCV-24" target="5mjd6HaX1OIvzdEkymCV-25">
          <mxGeometry width="50" height="50" relative="1" as="geometry">
            <mxPoint x="345" y="412" as="sourcePoint" />
            <mxPoint x="395" y="362" as="targetPoint" />
          </mxGeometry>
        </mxCell>
        <mxCell id="5mjd6HaX1OIvzdEkymCV-33" value="拷贝程式文件到共享文件夹" style="text;html=1;align=center;verticalAlign=middle;resizable=0;points=[];autosize=1;strokeColor=#82b366;fillColor=#d5e8d4;" vertex="1" parent="1">
          <mxGeometry x="591" y="320" width="170" height="30" as="geometry" />
        </mxCell>
        <mxCell id="5mjd6HaX1OIvzdEkymCV-36" value="根据&lt;font style=&quot;color: light-dark(rgb(85, 192, 255), rgb(255, 255, 255));&quot;&gt;程式号&lt;/font&gt;去共享文件夹查找NC程式文件&lt;div&gt;获取对应NC文件后读取NC文件中的信息&lt;br&gt;&lt;div&gt;(DesignUser:HGYD003)&amp;nbsp; &amp;nbsp; &amp;nbsp; &amp;nbsp; &amp;nbsp; &amp;nbsp; &amp;nbsp; &amp;nbsp;&lt;/div&gt;&lt;div&gt;(MachineUser:HGY007)&amp;nbsp; &amp;nbsp; &amp;nbsp; &amp;nbsp; &amp;nbsp; &amp;nbsp; &amp;nbsp; &amp;nbsp;&lt;/div&gt;&lt;div&gt;(MachineTime:11.92)&amp;nbsp; &amp;nbsp; &amp;nbsp; &amp;nbsp; &amp;nbsp; &amp;nbsp; &lt;span style=&quot;white-space:pre&quot;&gt;&#x9;&lt;/span&gt;&lt;/div&gt;&lt;div&gt;(DrawingNo:C00404-37279A)&amp;nbsp; &amp;nbsp; &amp;nbsp; &amp;nbsp; &amp;nbsp;&lt;/div&gt;&lt;/div&gt;" style="text;html=1;align=center;verticalAlign=middle;whiteSpace=wrap;rounded=0;" vertex="1" parent="1">
          <mxGeometry x="225" y="392" width="256" height="30" as="geometry" />
        </mxCell>
        <mxCell id="5mjd6HaX1OIvzdEkymCV-37" value="" style="endArrow=classic;startArrow=classic;html=1;rounded=0;entryX=0;entryY=0.5;entryDx=0;entryDy=0;exitX=1;exitY=0.5;exitDx=0;exitDy=0;" edge="1" parent="1" source="5mjd6HaX1OIvzdEkymCV-6" target="5mjd6HaX1OIvzdEkymCV-25">
          <mxGeometry width="50" height="50" relative="1" as="geometry">
            <mxPoint x="345" y="412" as="sourcePoint" />
            <mxPoint x="395" y="362" as="targetPoint" />
          </mxGeometry>
        </mxCell>
        <mxCell id="5mjd6HaX1OIvzdEkymCV-44" value="鸿冠钇新增操作步骤" style="text;html=1;align=center;verticalAlign=middle;resizable=0;points=[];autosize=1;strokeColor=#82b366;fillColor=#d5e8d4;" vertex="1" parent="1">
          <mxGeometry x="631" y="290" width="130" height="30" as="geometry" />
        </mxCell>
        <mxCell id="5mjd6HaX1OIvzdEkymCV-45" value="内网网络" style="text;html=1;align=center;verticalAlign=middle;resizable=0;points=[];autosize=1;strokeColor=none;fillColor=none;" vertex="1" parent="1">
          <mxGeometry x="284" y="222" width="70" height="30" as="geometry" />
        </mxCell>
      </root>
    </mxGraphModel>
  </diagram>
</mxfile>
